<svg width="46" height="47" viewBox="0 0 46 47" fill="none" xmlns="http://www.w3.org/2000/svg">
    <g opacity="0.3">
    <path d="M19.0328 36.1596L24.9316 30.2954L19.0328 24.4312L13.134 30.2954L19.0328 36.1596Z" fill="black"/>
    <path d="M19.0719 11.0333L23.5342 6.59717L19.0719 2.16107L14.6096 6.59717L19.0719 11.0333Z" fill="black"/>
    <path d="M7.17343 36.12L13.0723 30.2559L7.17343 24.3917L1.27459 30.2559L7.17343 36.12Z" fill="black"/>
    <path d="M7.17343 12.4613L13.0723 6.59717L7.17343 0.732989L1.27459 6.59717L7.17343 12.4613Z" fill="black"/>
    <path d="M19.0332 46.2672L23.1399 42.1846L19.0332 38.102L14.9264 42.1846L19.0332 46.2672Z" fill="black"/>
    <path d="M19.0326 22.9212L23.4941 18.4858L19.0326 14.0505L14.571 18.4858L19.0326 22.9212Z" fill="black"/>
    <path d="M7.17407 46.0753L11.1904 42.0825L7.17407 38.0898L3.15771 42.0825L7.17407 46.0753Z" fill="black"/>
    <path d="M7.17343 24.2904L13.0723 18.4263L7.17343 12.5621L1.27459 18.4263L7.17343 24.2904Z" fill="black"/>
    <path d="M30.8908 31.8163L32.3784 30.3374L30.8908 28.8585L29.4032 30.3374L30.8908 31.8163Z" fill="black"/>
    <path d="M30.8912 9.63621L33.8662 6.67871L30.8912 3.72122L27.9163 6.67871L30.8912 9.63621Z" fill="black"/>
    <path d="M42.8205 31.8163L44.3081 30.3374L42.8205 28.8585L41.3329 30.3374L42.8205 31.8163Z" fill="black"/>
    <path d="M36.8708 37.6991L38.3584 36.2202L36.8708 34.7413L35.3832 36.2202L36.8708 37.6991Z" fill="black"/>
    <path d="M26.4587 37.6991L27.9463 36.2202L26.4587 34.7413L24.9711 36.2202L26.4587 37.6991Z" fill="black"/>
    <path d="M42.8226 9.60445L45.7656 6.67871L42.8226 3.75298L39.8796 6.67871L42.8226 9.60445Z" fill="black"/>
    <path d="M30.8908 43.6136L32.3784 42.1348L30.8908 40.6559L29.4032 42.1348L30.8908 43.6136Z" fill="black"/>
    <path d="M30.8891 21.4653L33.896 18.4761L30.8891 15.4868L27.8821 18.4761L30.8891 21.4653Z" fill="black"/>
    <path d="M42.8205 43.6136L44.3081 42.1348L42.8205 40.6559L41.3329 42.1348L42.8205 43.6136Z" fill="black"/>
    <path d="M42.8204 21.4336L45.7954 18.4761L42.8204 15.5186L39.8455 18.4761L42.8204 21.4336Z" fill="black"/>
    <path d="M36.8707 15.519L39.8457 12.5615L36.8707 9.60403L33.8958 12.5615L36.8707 15.519Z" fill="black"/>
    <path d="M36.8707 27.3481L39.8457 24.3906L36.8707 21.4331L33.8958 24.3906L36.8707 27.3481Z" fill="black"/>
    <path d="M26.4589 27.3481L29.4338 24.3906L26.4589 21.4331L23.4839 24.3906L26.4589 27.3481Z" fill="black"/>
    <path d="M24.9713 15.519L27.9463 12.5615L24.9713 9.60403L21.9963 12.5615L24.9713 15.519Z" fill="black"/>
    </g>
    </svg>
    