<svg width="306" height="167" viewBox="0 0 306 167" fill="none" xmlns="http://www.w3.org/2000/svg">
<g filter="url(#filter0_b_1099_9939)">
<path d="M157.12 81.9742H155.24C140.28 81.9742 138.36 75.3342 138.36 72.4142V72.1342H148.2C148.32 72.5742 148.96 75.0942 156.16 75.0942C163 75.0942 163.84 73.0942 163.84 71.4542V71.2142C163.84 69.5742 163 67.5742 156.16 67.5742C149 67.5742 148.16 69.6942 148.08 69.9742H139V51.6942H171.52V58.6142H148.16V63.9342C148.72 63.4942 151.48 61.1742 158.76 61.1742H159.12C170.92 61.1742 173.6 65.7342 173.6 71.1742V71.4142C173.6 76.2542 170.72 81.9742 157.12 81.9742Z" fill="#00C99D"/>
<path d="M107.964 91.2727V100H106.907V92.2102H102.509V100H101.453V91.2727H107.964ZM112.153 100.136C111.562 100.136 111.044 99.9957 110.598 99.7145C110.155 99.4332 109.808 99.0398 109.558 98.5341C109.311 98.0284 109.187 97.4375 109.187 96.7614C109.187 96.0795 109.311 95.4844 109.558 94.9759C109.808 94.4673 110.155 94.0724 110.598 93.7912C111.044 93.5099 111.562 93.3693 112.153 93.3693C112.744 93.3693 113.261 93.5099 113.704 93.7912C114.15 94.0724 114.497 94.4673 114.744 94.9759C114.994 95.4844 115.119 96.0795 115.119 96.7614C115.119 97.4375 114.994 98.0284 114.744 98.5341C114.497 99.0398 114.15 99.4332 113.704 99.7145C113.261 99.9957 112.744 100.136 112.153 100.136ZM112.153 99.233C112.602 99.233 112.971 99.1179 113.261 98.8878C113.551 98.6577 113.765 98.3551 113.905 97.9801C114.044 97.6051 114.113 97.1989 114.113 96.7614C114.113 96.3239 114.044 95.9162 113.905 95.5384C113.765 95.1605 113.551 94.8551 113.261 94.6222C112.971 94.3892 112.602 94.2727 112.153 94.2727C111.704 94.2727 111.335 94.3892 111.045 94.6222C110.755 94.8551 110.541 95.1605 110.402 95.5384C110.262 95.9162 110.193 96.3239 110.193 96.7614C110.193 97.1989 110.262 97.6051 110.402 97.9801C110.541 98.3551 110.755 98.6577 111.045 98.8878C111.335 99.1179 111.704 99.233 112.153 99.233ZM115.49 101.875V99.0625H116.035C116.169 98.9233 116.284 98.7727 116.381 98.6108C116.477 98.4489 116.561 98.2571 116.632 98.0355C116.706 97.8111 116.768 97.5384 116.82 97.2173C116.871 96.8935 116.916 96.5028 116.956 96.0455L117.177 93.4545H121.337V99.0625H122.342V101.875H121.337V100H116.496V101.875H115.49ZM117.177 99.0625H120.331V94.392H118.115L117.945 96.0455C117.874 96.7301 117.785 97.3281 117.68 97.8395C117.575 98.3509 117.408 98.7585 117.177 99.0625ZM125.871 100.136C125.28 100.136 124.762 99.9957 124.316 99.7145C123.872 99.4332 123.526 99.0398 123.276 98.5341C123.029 98.0284 122.905 97.4375 122.905 96.7614C122.905 96.0795 123.029 95.4844 123.276 94.9759C123.526 94.4673 123.872 94.0724 124.316 93.7912C124.762 93.5099 125.28 93.3693 125.871 93.3693C126.462 93.3693 126.979 93.5099 127.422 93.7912C127.868 94.0724 128.215 94.4673 128.462 94.9759C128.712 95.4844 128.837 96.0795 128.837 96.7614C128.837 97.4375 128.712 98.0284 128.462 98.5341C128.215 99.0398 127.868 99.4332 127.422 99.7145C126.979 99.9957 126.462 100.136 125.871 100.136ZM125.871 99.233C126.32 99.233 126.689 99.1179 126.979 98.8878C127.269 98.6577 127.483 98.3551 127.622 97.9801C127.762 97.6051 127.831 97.1989 127.831 96.7614C127.831 96.3239 127.762 95.9162 127.622 95.5384C127.483 95.1605 127.269 94.8551 126.979 94.6222C126.689 94.3892 126.32 94.2727 125.871 94.2727C125.422 94.2727 125.053 94.3892 124.763 94.6222C124.473 94.8551 124.259 95.1605 124.12 95.5384C123.98 95.9162 123.911 96.3239 123.911 96.7614C123.911 97.1989 123.98 97.6051 124.12 97.9801C124.259 98.3551 124.473 98.6577 124.763 98.8878C125.053 99.1179 125.422 99.233 125.871 99.233ZM129.498 98.3295H130.571C130.594 98.625 130.728 98.8494 130.972 99.0028C131.219 99.1562 131.54 99.233 131.935 99.233C132.338 99.233 132.684 99.1506 132.971 98.9858C133.258 98.8182 133.401 98.5483 133.401 98.1761C133.401 97.9574 133.347 97.767 133.239 97.6051C133.131 97.4403 132.979 97.3125 132.783 97.2216C132.587 97.1307 132.356 97.0852 132.088 97.0852H130.963V96.1818H132.088C132.489 96.1818 132.785 96.0909 132.975 95.9091C133.168 95.7273 133.265 95.5 133.265 95.2273C133.265 94.9347 133.161 94.7003 132.954 94.5241C132.746 94.3452 132.452 94.2557 132.071 94.2557C131.688 94.2557 131.368 94.3423 131.113 94.5156C130.857 94.6861 130.722 94.9062 130.708 95.1761H129.651C129.662 94.8239 129.77 94.5128 129.975 94.2429C130.179 93.9702 130.458 93.7571 130.81 93.6037C131.162 93.4474 131.566 93.3693 132.02 93.3693C132.481 93.3693 132.88 93.4503 133.218 93.6122C133.559 93.7713 133.821 93.9886 134.006 94.2642C134.194 94.5369 134.287 94.8466 134.287 95.1932C134.287 95.5625 134.184 95.8608 133.976 96.0881C133.769 96.3153 133.509 96.4773 133.196 96.5739V96.642C133.444 96.6591 133.658 96.7386 133.84 96.8807C134.025 97.0199 134.168 97.2031 134.27 97.4304C134.373 97.6548 134.424 97.9034 134.424 98.1761C134.424 98.5739 134.317 98.9205 134.104 99.2159C133.891 99.5085 133.598 99.7358 133.226 99.8977C132.854 100.057 132.429 100.136 131.952 100.136C131.489 100.136 131.074 100.061 130.708 99.9105C130.341 99.7571 130.05 99.5455 129.834 99.2756C129.621 99.0028 129.509 98.6875 129.498 98.3295ZM138.03 100.136C137.439 100.136 136.921 99.9957 136.475 99.7145C136.032 99.4332 135.685 99.0398 135.435 98.5341C135.188 98.0284 135.064 97.4375 135.064 96.7614C135.064 96.0795 135.188 95.4844 135.435 94.9759C135.685 94.4673 136.032 94.0724 136.475 93.7912C136.921 93.5099 137.439 93.3693 138.03 93.3693C138.621 93.3693 139.138 93.5099 139.581 93.7912C140.027 94.0724 140.374 94.4673 140.621 94.9759C140.871 95.4844 140.996 96.0795 140.996 96.7614C140.996 97.4375 140.871 98.0284 140.621 98.5341C140.374 99.0398 140.027 99.4332 139.581 99.7145C139.138 99.9957 138.621 100.136 138.03 100.136ZM138.03 99.233C138.479 99.233 138.848 99.1179 139.138 98.8878C139.428 98.6577 139.642 98.3551 139.782 97.9801C139.921 97.6051 139.99 97.1989 139.99 96.7614C139.99 96.3239 139.921 95.9162 139.782 95.5384C139.642 95.1605 139.428 94.8551 139.138 94.6222C138.848 94.3892 138.479 94.2727 138.03 94.2727C137.581 94.2727 137.212 94.3892 136.922 94.6222C136.632 94.8551 136.418 95.1605 136.279 95.5384C136.14 95.9162 136.07 96.3239 136.07 96.7614C136.07 97.1989 136.14 97.6051 136.279 97.9801C136.418 98.3551 136.632 98.6577 136.922 98.8878C137.212 99.1179 137.581 99.233 138.03 99.233ZM141.657 98.3295H142.731C142.753 98.625 142.887 98.8494 143.131 99.0028C143.378 99.1562 143.699 99.233 144.094 99.233C144.498 99.233 144.843 99.1506 145.13 98.9858C145.417 98.8182 145.56 98.5483 145.56 98.1761C145.56 97.9574 145.506 97.767 145.398 97.6051C145.29 97.4403 145.138 97.3125 144.942 97.2216C144.746 97.1307 144.515 97.0852 144.248 97.0852H143.123V96.1818H144.248C144.648 96.1818 144.944 96.0909 145.134 95.9091C145.327 95.7273 145.424 95.5 145.424 95.2273C145.424 94.9347 145.32 94.7003 145.113 94.5241C144.905 94.3452 144.611 94.2557 144.231 94.2557C143.847 94.2557 143.528 94.3423 143.272 94.5156C143.016 94.6861 142.881 94.9062 142.867 95.1761H141.81C141.822 94.8239 141.93 94.5128 142.134 94.2429C142.339 93.9702 142.617 93.7571 142.969 93.6037C143.322 93.4474 143.725 93.3693 144.18 93.3693C144.64 93.3693 145.039 93.4503 145.377 93.6122C145.718 93.7713 145.981 93.9886 146.165 94.2642C146.353 94.5369 146.447 94.8466 146.447 95.1932C146.447 95.5625 146.343 95.8608 146.136 96.0881C145.928 96.3153 145.668 96.4773 145.356 96.5739V96.642C145.603 96.6591 145.817 96.7386 145.999 96.8807C146.184 97.0199 146.327 97.2031 146.43 97.4304C146.532 97.6548 146.583 97.9034 146.583 98.1761C146.583 98.5739 146.476 98.9205 146.263 99.2159C146.05 99.5085 145.758 99.7358 145.386 99.8977C145.013 100.057 144.589 100.136 144.111 100.136C143.648 100.136 143.234 100.061 142.867 99.9105C142.501 99.7571 142.209 99.5455 141.993 99.2756C141.78 99.0028 141.668 98.6875 141.657 98.3295ZM147.53 102.455V93.4545H148.502V94.4943H148.621C148.695 94.3807 148.797 94.2358 148.928 94.0597C149.062 93.8807 149.252 93.7216 149.499 93.5824C149.749 93.4403 150.087 93.3693 150.513 93.3693C151.064 93.3693 151.55 93.5071 151.971 93.7827C152.391 94.0582 152.719 94.4489 152.955 94.9545C153.191 95.4602 153.309 96.0568 153.309 96.7443C153.309 97.4375 153.191 98.0384 152.955 98.5469C152.719 99.0526 152.393 99.4446 151.975 99.723C151.557 99.9986 151.076 100.136 150.53 100.136C150.11 100.136 149.773 100.067 149.52 99.9276C149.268 99.7855 149.073 99.625 148.937 99.446C148.8 99.2642 148.695 99.1136 148.621 98.9943H148.536V102.455H147.53ZM148.519 96.7273C148.519 97.2216 148.591 97.6577 148.736 98.0355C148.881 98.4105 149.093 98.7045 149.371 98.9176C149.65 99.1278 149.991 99.233 150.394 99.233C150.814 99.233 151.165 99.1222 151.446 98.9006C151.731 98.6761 151.944 98.375 152.086 97.9972C152.231 97.6165 152.303 97.1932 152.303 96.7273C152.303 96.267 152.232 95.8523 152.09 95.483C151.951 95.1108 151.739 94.8168 151.455 94.6009C151.174 94.3821 150.82 94.2727 150.394 94.2727C149.985 94.2727 149.641 94.3764 149.363 94.5838C149.084 94.7884 148.874 95.0753 148.732 95.4446C148.59 95.8111 148.519 96.2386 148.519 96.7273ZM155.383 98.517L158.537 93.4545H159.696V100H158.69V94.9375L155.554 100H154.377V93.4545H155.383V98.517ZM160.182 94.392V93.4545H165.5V94.392H163.352V100H162.346V94.392H160.182ZM168.906 100.136C168.275 100.136 167.731 99.9972 167.274 99.7188C166.819 99.4375 166.469 99.0455 166.221 98.5426C165.977 98.0369 165.855 97.4489 165.855 96.7784C165.855 96.108 165.977 95.517 166.221 95.0057C166.469 94.4915 166.812 94.0909 167.253 93.804C167.696 93.5142 168.213 93.3693 168.804 93.3693C169.145 93.3693 169.481 93.4261 169.814 93.5398C170.146 93.6534 170.449 93.8381 170.721 94.0938C170.994 94.3466 171.211 94.6818 171.373 95.0994C171.535 95.517 171.616 96.0312 171.616 96.642V97.0682H166.571V96.1989H170.594C170.594 95.8295 170.52 95.5 170.372 95.2102C170.227 94.9205 170.02 94.6918 169.75 94.5241C169.483 94.3565 169.167 94.2727 168.804 94.2727C168.403 94.2727 168.057 94.3722 167.764 94.571C167.474 94.767 167.251 95.0227 167.095 95.3381C166.939 95.6534 166.861 95.9915 166.861 96.3523V96.9318C166.861 97.4261 166.946 97.8452 167.116 98.1889C167.29 98.5298 167.53 98.7898 167.836 98.9688C168.143 99.1449 168.5 99.233 168.906 99.233C169.17 99.233 169.409 99.196 169.622 99.1222C169.838 99.0455 170.024 98.9318 170.18 98.7812C170.336 98.6278 170.457 98.4375 170.542 98.2102L171.514 98.483C171.412 98.8125 171.24 99.1023 170.998 99.3523C170.757 99.5994 170.459 99.7926 170.103 99.9318C169.748 100.068 169.349 100.136 168.906 100.136ZM172.101 100V99.0625H172.34C172.536 99.0625 172.699 99.0241 172.83 98.9474C172.961 98.8679 173.066 98.7301 173.145 98.5341C173.228 98.3352 173.29 98.0597 173.333 97.7074C173.378 97.3523 173.411 96.9006 173.431 96.3523L173.55 93.4545H177.914V100H176.908V94.392H174.505L174.402 96.7273C174.38 97.2642 174.331 97.7372 174.257 98.1463C174.186 98.5526 174.077 98.8935 173.929 99.169C173.784 99.4446 173.591 99.652 173.35 99.7912C173.108 99.9304 172.806 100 172.442 100H172.101ZM180.163 95.8239H182.038C182.805 95.8239 183.392 96.0185 183.798 96.4077C184.204 96.7969 184.407 97.2898 184.407 97.8864C184.407 98.2784 184.316 98.6349 184.135 98.956C183.953 99.2741 183.686 99.5284 183.333 99.7188C182.981 99.9062 182.549 100 182.038 100H179.294V93.4545H180.299V99.0625H182.038C182.436 99.0625 182.762 98.9574 183.018 98.7472C183.274 98.5369 183.402 98.267 183.402 97.9375C183.402 97.5909 183.274 97.3082 183.018 97.0895C182.762 96.8707 182.436 96.7614 182.038 96.7614H180.163V95.8239ZM189.854 96.267V97.2045H186.24V96.267H189.854ZM186.479 93.4545V100H185.473V93.4545H186.479ZM190.621 93.4545V100H189.615V93.4545H190.621ZM192.861 95.8239H194.736C195.503 95.8239 196.09 96.0185 196.496 96.4077C196.902 96.7969 197.106 97.2898 197.106 97.8864C197.106 98.2784 197.015 98.6349 196.833 98.956C196.651 99.2741 196.384 99.5284 196.032 99.7188C195.679 99.9062 195.248 100 194.736 100H191.992V93.4545H192.998V99.0625H194.736C195.134 99.0625 195.461 98.9574 195.716 98.7472C195.972 98.5369 196.1 98.267 196.1 97.9375C196.1 97.5909 195.972 97.3082 195.716 97.0895C195.461 96.8707 195.134 96.7614 194.736 96.7614H192.861V95.8239ZM198.145 100V93.4545H199.151V100H198.145ZM201.277 93.4545L202.845 96.1307L204.413 93.4545H205.572L203.458 96.7273L205.572 100H204.413L202.845 97.4602L201.277 100H200.118L202.197 96.7273L200.118 93.4545H201.277ZM127.018 115.875V113.062H127.564C127.697 112.923 127.812 112.773 127.909 112.611C128.005 112.449 128.089 112.257 128.16 112.036C128.234 111.811 128.297 111.538 128.348 111.217C128.399 110.893 128.444 110.503 128.484 110.045L128.706 107.455H132.865V113.062H133.87V115.875H132.865V114H128.024V115.875H127.018ZM128.706 113.062H131.859V108.392H129.643L129.473 110.045C129.402 110.73 129.314 111.328 129.208 111.839C129.103 112.351 128.936 112.759 128.706 113.062ZM137.484 114.136C136.854 114.136 136.31 113.997 135.852 113.719C135.398 113.438 135.047 113.045 134.8 112.543C134.555 112.037 134.433 111.449 134.433 110.778C134.433 110.108 134.555 109.517 134.8 109.006C135.047 108.491 135.391 108.091 135.831 107.804C136.274 107.514 136.791 107.369 137.382 107.369C137.723 107.369 138.06 107.426 138.392 107.54C138.724 107.653 139.027 107.838 139.3 108.094C139.572 108.347 139.79 108.682 139.952 109.099C140.114 109.517 140.195 110.031 140.195 110.642V111.068H135.149V110.199H139.172C139.172 109.83 139.098 109.5 138.95 109.21C138.805 108.92 138.598 108.692 138.328 108.524C138.061 108.357 137.746 108.273 137.382 108.273C136.981 108.273 136.635 108.372 136.342 108.571C136.052 108.767 135.829 109.023 135.673 109.338C135.517 109.653 135.439 109.991 135.439 110.352V110.932C135.439 111.426 135.524 111.845 135.695 112.189C135.868 112.53 136.108 112.79 136.415 112.969C136.722 113.145 137.078 113.233 137.484 113.233C137.748 113.233 137.987 113.196 138.2 113.122C138.416 113.045 138.602 112.932 138.758 112.781C138.915 112.628 139.035 112.437 139.121 112.21L140.092 112.483C139.99 112.812 139.818 113.102 139.577 113.352C139.335 113.599 139.037 113.793 138.682 113.932C138.327 114.068 137.927 114.136 137.484 114.136ZM142.265 112.517L145.418 107.455H146.577V114H145.572V108.938L142.435 114H141.259V107.455H142.265V112.517ZM144.753 105.273H145.691C145.691 105.733 145.532 106.109 145.214 106.402C144.895 106.695 144.464 106.841 143.918 106.841C143.381 106.841 142.954 106.695 142.635 106.402C142.32 106.109 142.162 105.733 142.162 105.273H143.1C143.1 105.494 143.161 105.689 143.283 105.857C143.408 106.024 143.62 106.108 143.918 106.108C144.216 106.108 144.429 106.024 144.557 105.857C144.688 105.689 144.753 105.494 144.753 105.273ZM150.613 114.136C149.999 114.136 149.471 113.991 149.028 113.702C148.585 113.412 148.244 113.013 148.005 112.504C147.766 111.996 147.647 111.415 147.647 110.761C147.647 110.097 147.769 109.51 148.014 109.001C148.261 108.49 148.604 108.091 149.045 107.804C149.488 107.514 150.005 107.369 150.596 107.369C151.056 107.369 151.471 107.455 151.84 107.625C152.21 107.795 152.512 108.034 152.748 108.341C152.984 108.648 153.13 109.006 153.187 109.415H152.181C152.104 109.116 151.934 108.852 151.67 108.622C151.408 108.389 151.056 108.273 150.613 108.273C150.221 108.273 149.877 108.375 149.582 108.58C149.289 108.781 149.06 109.067 148.896 109.436C148.734 109.803 148.653 110.233 148.653 110.727C148.653 111.233 148.732 111.673 148.891 112.048C149.053 112.423 149.281 112.714 149.573 112.922C149.869 113.129 150.215 113.233 150.613 113.233C150.874 113.233 151.112 113.188 151.325 113.097C151.538 113.006 151.718 112.875 151.866 112.705C152.014 112.534 152.119 112.33 152.181 112.091H153.187C153.13 112.477 152.989 112.825 152.765 113.135C152.543 113.442 152.249 113.686 151.883 113.868C151.519 114.047 151.096 114.136 150.613 114.136ZM153.676 108.392V107.455H158.994V108.392H156.847V114H155.841V108.392H153.676ZM159.996 114V107.455H162.672C163.377 107.455 163.936 107.614 164.351 107.932C164.766 108.25 164.973 108.67 164.973 109.193C164.973 109.591 164.855 109.899 164.62 110.118C164.384 110.334 164.081 110.48 163.712 110.557C163.953 110.591 164.188 110.676 164.415 110.812C164.645 110.949 164.835 111.136 164.986 111.375C165.137 111.611 165.212 111.901 165.212 112.244C165.212 112.58 165.127 112.879 164.956 113.143C164.786 113.408 164.541 113.616 164.223 113.77C163.905 113.923 163.524 114 163.081 114H159.996ZM160.95 113.08H163.081C163.428 113.08 163.699 112.997 163.895 112.832C164.091 112.668 164.189 112.443 164.189 112.159C164.189 111.821 164.091 111.555 163.895 111.362C163.699 111.166 163.428 111.068 163.081 111.068H160.95V113.08ZM160.95 110.199H162.672C162.942 110.199 163.173 110.162 163.367 110.088C163.56 110.011 163.708 109.903 163.81 109.764C163.915 109.622 163.968 109.455 163.968 109.261C163.968 108.986 163.852 108.77 163.622 108.614C163.392 108.455 163.075 108.375 162.672 108.375H160.95V110.199ZM167.275 112.517L170.428 107.455H171.587V114H170.581V108.938L167.445 114H166.269V107.455H167.275V112.517ZM173.969 112.517L177.123 107.455H178.282V114H177.276V108.938L174.14 114H172.964V107.455H173.969V112.517ZM176.458 105.273H177.396C177.396 105.733 177.236 106.109 176.918 106.402C176.6 106.695 176.168 106.841 175.623 106.841C175.086 106.841 174.658 106.695 174.34 106.402C174.025 106.109 173.867 105.733 173.867 105.273H174.805C174.805 105.494 174.866 105.689 174.988 105.857C175.113 106.024 175.325 106.108 175.623 106.108C175.921 106.108 176.134 106.024 176.262 105.857C176.393 105.689 176.458 105.494 176.458 105.273Z" fill="white"/>
<rect x="24.5" y="59.6556" width="68" height="48" rx="3.5" stroke="url(#paint0_linear_1099_9939)"/>
<path d="M34.6666 80.3223V82.989H37.3333V84.3223H33.3333V80.3223H34.6666ZM46.6666 80.3223V84.3223H42.6666V82.989H45.3333V80.3223H46.6666ZM36.9999 74.3223C36.9999 75.118 37.316 75.8811 37.8786 76.4437C38.4412 77.0063 39.2043 77.3223 39.9999 77.3223C40.7956 77.3223 41.5586 77.0063 42.1212 76.4437C42.6838 75.8811 42.9999 75.118 42.9999 74.3223H44.3333C44.3334 75.1153 44.116 75.893 43.7047 76.571C43.2934 77.2489 42.7039 77.8009 42.0006 78.167L41.9999 82.3223H37.9999V78.1677C37.2963 77.8016 36.7067 77.2495 36.2953 76.5715C35.8838 75.8934 35.6664 75.1155 35.6666 74.3223H36.9999ZM39.9999 72.989C40.4419 72.989 40.8659 73.1646 41.1784 73.4772C41.491 73.7897 41.6666 74.2137 41.6666 74.6557C41.6666 75.0977 41.491 75.5216 41.1784 75.8342C40.8659 76.1468 40.4419 76.3223 39.9999 76.3223C39.5579 76.3223 39.134 76.1468 38.8214 75.8342C38.5088 75.5216 38.3333 75.0977 38.3333 74.6557C38.3333 74.2137 38.5088 73.7897 38.8214 73.4772C39.134 73.1646 39.5579 72.989 39.9999 72.989ZM37.3333 70.989V72.3223L34.6666 72.3217V74.989H33.3333V70.989H37.3333ZM46.6666 70.989V74.989H45.3333V72.3223H42.6666V70.989H46.6666Z" fill="#767676"/>
<path d="M59.084 82.3376H58.426C52.756 82.3376 52.224 79.5236 52.224 78.4596V78.3476H55.654C55.696 78.6136 55.85 79.9296 58.72 79.9296C61.688 79.9296 61.856 79.1876 61.856 78.7676C61.856 78.3616 61.632 77.9556 60.4 77.9556H56.718V75.5336H60.232C61.394 75.5336 61.59 75.1976 61.59 74.8476C61.59 74.4696 61.366 73.9376 58.51 73.9376C55.724 73.9376 55.696 74.9036 55.654 75.1276H52.252V74.9876C52.252 74.0356 52.672 71.5576 58.202 71.5576H58.79C64.362 71.5576 65.006 73.1256 65.006 74.2456V74.3296C65.006 75.4216 64.012 75.9816 63.34 76.1356C64.166 76.3596 65.328 77.0736 65.328 78.6836V78.7816C65.328 80.5316 64.222 82.3376 59.084 82.3376Z" fill="#C4C4C4"/>
<path d="M32.3409 97.042H33.0568C33.072 97.239 33.161 97.3886 33.3239 97.4909C33.4886 97.5931 33.7027 97.6443 33.9659 97.6443C34.2348 97.6443 34.465 97.5894 34.6562 97.4795C34.8475 97.3678 34.9432 97.1878 34.9432 96.9397C34.9432 96.7939 34.9072 96.667 34.8352 96.559C34.7633 96.4492 34.6619 96.364 34.5312 96.3034C34.4006 96.2428 34.2462 96.2125 34.0682 96.2125H33.3182V95.6102H34.0682C34.3352 95.6102 34.5322 95.5496 34.6591 95.4284C34.7879 95.3072 34.8523 95.1556 34.8523 94.9738C34.8523 94.7787 34.7831 94.6225 34.6449 94.5051C34.5066 94.3858 34.3106 94.3261 34.0568 94.3261C33.8011 94.3261 33.5881 94.3839 33.4176 94.4994C33.2472 94.613 33.1572 94.7598 33.1477 94.9397H32.4432C32.4508 94.7049 32.5227 94.4975 32.6591 94.3176C32.7955 94.1358 32.9811 93.9937 33.2159 93.8914C33.4508 93.7873 33.7197 93.7352 34.0227 93.7352C34.3295 93.7352 34.5956 93.7892 34.821 93.8971C35.0483 94.0032 35.2235 94.1481 35.3466 94.3318C35.4716 94.5136 35.5341 94.72 35.5341 94.9511C35.5341 95.1973 35.465 95.3962 35.3267 95.5477C35.1884 95.6992 35.0152 95.8072 34.8068 95.8715V95.917C34.9716 95.9284 35.1146 95.9814 35.2358 96.0761C35.3589 96.1689 35.4545 96.2911 35.5227 96.4426C35.5909 96.5922 35.625 96.7579 35.625 96.9397C35.625 97.2049 35.554 97.4359 35.4119 97.6329C35.2699 97.828 35.0748 97.9795 34.8267 98.0875C34.5786 98.1935 34.2955 98.2465 33.9773 98.2465C33.6686 98.2465 33.392 98.1964 33.1477 98.096C32.9034 97.9937 32.7093 97.8526 32.5653 97.6727C32.4233 97.4909 32.3485 97.2806 32.3409 97.042ZM37.3855 98.2579C37.109 98.2579 36.8581 98.2058 36.6327 98.1017C36.4073 97.9956 36.2283 97.8431 36.0958 97.6443C35.9632 97.4435 35.8969 97.2011 35.8969 96.917C35.8969 96.667 35.9462 96.4644 36.0446 96.309C36.1431 96.1519 36.2748 96.0287 36.4395 95.9397C36.6043 95.8507 36.7861 95.7844 36.985 95.7409C37.1857 95.6954 37.3874 95.6594 37.5901 95.6329C37.8552 95.5988 38.0702 95.5733 38.235 95.5562C38.4016 95.5373 38.5229 95.506 38.5986 95.4625C38.6763 95.4189 38.7151 95.3431 38.7151 95.2352V95.2125C38.7151 94.9322 38.6384 94.7144 38.485 94.559C38.3335 94.4037 38.1033 94.3261 37.7946 94.3261C37.4746 94.3261 37.2236 94.3962 37.0418 94.5363C36.86 94.6765 36.7321 94.8261 36.6583 94.9852L36.0219 94.7579C36.1355 94.4928 36.2871 94.2863 36.4765 94.1386C36.6677 93.989 36.8761 93.8848 37.1015 93.8261C37.3287 93.7655 37.5522 93.7352 37.7719 93.7352C37.9121 93.7352 38.073 93.7522 38.2549 93.7863C38.4386 93.8185 38.6157 93.8858 38.7861 93.988C38.9585 94.0903 39.1015 94.2447 39.2151 94.4511C39.3287 94.6575 39.3855 94.934 39.3855 95.2806V98.1556H38.7151V97.5647H38.681C38.6355 97.6594 38.5598 97.7608 38.4537 97.8687C38.3477 97.9767 38.2066 98.0685 38.0304 98.1443C37.8543 98.22 37.6393 98.2579 37.3855 98.2579ZM37.4878 97.6556C37.753 97.6556 37.9765 97.6036 38.1583 97.4994C38.342 97.3952 38.4802 97.2608 38.573 97.096C38.6677 96.9312 38.7151 96.7579 38.7151 96.5761V95.9625C38.6867 95.9965 38.6242 96.0278 38.5276 96.0562C38.4329 96.0827 38.323 96.1064 38.198 96.1272C38.0749 96.1462 37.9547 96.1632 37.8373 96.1784C37.7217 96.1916 37.628 96.203 37.556 96.2125C37.3818 96.2352 37.2189 96.2721 37.0674 96.3233C36.9177 96.3725 36.7965 96.4473 36.7037 96.5477C36.6128 96.6462 36.5674 96.7806 36.5674 96.9511C36.5674 97.184 36.6535 97.3602 36.8259 97.4795C37.0001 97.5969 37.2208 97.6556 37.4878 97.6556ZM41.9173 98.1556V97.6443L43.8377 95.542C44.0631 95.2958 44.2487 95.0818 44.3946 94.9C44.5404 94.7162 44.6484 94.5439 44.7184 94.3829C44.7904 94.22 44.8264 94.0496 44.8264 93.8715C44.8264 93.667 44.7771 93.4899 44.6787 93.3403C44.5821 93.1907 44.4495 93.0751 44.2809 92.9937C44.1124 92.9123 43.923 92.8715 43.7127 92.8715C43.4893 92.8715 43.2942 92.918 43.1275 93.0108C42.9627 93.1017 42.8349 93.2295 42.744 93.3943C42.655 93.559 42.6105 93.7522 42.6105 93.9738H41.94C41.94 93.6329 42.0186 93.3337 42.1758 93.0761C42.333 92.8185 42.547 92.6178 42.8179 92.4738C43.0906 92.3299 43.3965 92.2579 43.7355 92.2579C44.0764 92.2579 44.3785 92.3299 44.6417 92.4738C44.905 92.6178 45.1114 92.8119 45.261 93.0562C45.4107 93.3005 45.4855 93.5723 45.4855 93.8715C45.4855 94.0856 45.4466 94.2948 45.369 94.4994C45.2932 94.702 45.1607 94.9284 44.9713 95.1784C44.7838 95.4265 44.5234 95.7295 44.19 96.0875L42.8832 97.4852V97.5306H45.5877V98.1556H41.9173ZM46.0344 96.9625V96.3829L48.5912 92.3375H49.0116V93.2352H48.7276L46.7957 96.292V96.3375H50.2389V96.9625H46.0344ZM48.773 98.1556V96.7863V96.5164V92.3375H49.4435V98.1556H48.773ZM55.9979 93.792V98.1556H55.3275V93.792H55.9979ZM55.7366 95.8715V96.4965C55.5851 96.5534 55.4345 96.6036 55.2849 96.6471C55.1352 96.6888 54.978 96.7219 54.8133 96.7465C54.6485 96.7693 54.4676 96.7806 54.2707 96.7806C53.7763 96.7806 53.3796 96.6471 53.0803 96.3801C52.783 96.113 52.6343 95.7125 52.6343 95.1784V93.7806H53.3048V95.1784C53.3048 95.4019 53.3474 95.5856 53.4326 95.7295C53.5178 95.8734 53.6334 95.9805 53.7792 96.0505C53.925 96.1206 54.0888 96.1556 54.2707 96.1556C54.5548 96.1556 54.8114 96.1301 55.0405 96.0789C55.2716 96.0259 55.5036 95.9568 55.7366 95.8715ZM58.0468 98.2579C57.7703 98.2579 57.5194 98.2058 57.294 98.1017C57.0686 97.9956 56.8896 97.8431 56.7571 97.6443C56.6245 97.4435 56.5582 97.2011 56.5582 96.917C56.5582 96.667 56.6074 96.4644 56.7059 96.309C56.8044 96.1519 56.936 96.0287 57.1008 95.9397C57.2656 95.8507 57.4474 95.7844 57.6463 95.7409C57.847 95.6954 58.0487 95.6594 58.2514 95.6329C58.5165 95.5988 58.7315 95.5733 58.8963 95.5562C59.0629 95.5373 59.1841 95.506 59.2599 95.4625C59.3376 95.4189 59.3764 95.3431 59.3764 95.2352V95.2125C59.3764 94.9322 59.2997 94.7144 59.1463 94.559C58.9948 94.4037 58.7646 94.3261 58.4559 94.3261C58.1358 94.3261 57.8849 94.3962 57.7031 94.5363C57.5213 94.6765 57.3934 94.8261 57.3196 94.9852L56.6832 94.7579C56.7968 94.4928 56.9483 94.2863 57.1377 94.1386C57.329 93.989 57.5374 93.8848 57.7627 93.8261C57.99 93.7655 58.2135 93.7352 58.4332 93.7352C58.5733 93.7352 58.7343 93.7522 58.9162 93.7863C59.0999 93.8185 59.2769 93.8858 59.4474 93.988C59.6198 94.0903 59.7627 94.2447 59.8764 94.4511C59.99 94.6575 60.0468 94.934 60.0468 95.2806V98.1556H59.3764V97.5647H59.3423C59.2968 97.6594 59.2211 97.7608 59.115 97.8687C59.009 97.9767 58.8679 98.0685 58.6917 98.1443C58.5156 98.22 58.3006 98.2579 58.0468 98.2579ZM58.1491 97.6556C58.4143 97.6556 58.6377 97.6036 58.8196 97.4994C59.0033 97.3952 59.1415 97.2608 59.2343 97.096C59.329 96.9312 59.3764 96.7579 59.3764 96.5761V95.9625C59.348 95.9965 59.2855 96.0278 59.1889 96.0562C59.0942 96.0827 58.9843 96.1064 58.8593 96.1272C58.7362 96.1462 58.616 96.1632 58.4985 96.1784C58.383 96.1916 58.2893 96.203 58.2173 96.2125C58.043 96.2352 57.8802 96.2721 57.7287 96.3233C57.579 96.3725 57.4578 96.4473 57.365 96.5477C57.2741 96.6462 57.2287 96.7806 57.2287 96.9511C57.2287 97.184 57.3148 97.3602 57.4872 97.4795C57.6614 97.5969 57.8821 97.6556 58.1491 97.6556ZM62.578 98.2465C62.1689 98.2465 61.8166 98.15 61.5212 97.9568C61.2257 97.7636 60.9984 97.4975 60.8393 97.1585C60.6802 96.8195 60.6007 96.4322 60.6007 95.9965C60.6007 95.5534 60.6821 95.1623 60.845 94.8233C61.0098 94.4823 61.239 94.2162 61.5325 94.025C61.828 93.8318 62.1727 93.7352 62.5666 93.7352C62.8734 93.7352 63.1499 93.792 63.3962 93.9056C63.6424 94.0193 63.8441 94.1784 64.0013 94.3829C64.1585 94.5875 64.256 94.8261 64.2939 95.0988H63.6234C63.5723 94.9 63.4587 94.7238 63.2825 94.5704C63.1083 94.4151 62.8734 94.3375 62.578 94.3375C62.3166 94.3375 62.0874 94.4056 61.8905 94.542C61.6954 94.6765 61.5429 94.8668 61.4331 95.113C61.3251 95.3573 61.2712 95.6443 61.2712 95.9738C61.2712 96.3109 61.3242 96.6045 61.4302 96.8545C61.5382 97.1045 61.6897 97.2986 61.8848 97.4369C62.0818 97.5751 62.3128 97.6443 62.578 97.6443C62.7522 97.6443 62.9104 97.614 63.0524 97.5534C63.1945 97.4928 63.3147 97.4056 63.4132 97.292C63.5117 97.1784 63.5818 97.042 63.6234 96.8829H64.2939C64.256 97.1405 64.1623 97.3725 64.0126 97.5789C63.8649 97.7835 63.6689 97.9464 63.4246 98.0676C63.1821 98.1869 62.8999 98.2465 62.578 98.2465ZM66.0928 98.2579C65.8163 98.2579 65.5653 98.2058 65.3399 98.1017C65.1146 97.9956 64.9356 97.8431 64.803 97.6443C64.6704 97.4435 64.6041 97.2011 64.6041 96.917C64.6041 96.667 64.6534 96.4644 64.7519 96.309C64.8504 96.1519 64.982 96.0287 65.1468 95.9397C65.3115 95.8507 65.4934 95.7844 65.6922 95.7409C65.893 95.6954 66.0947 95.6594 66.2973 95.6329C66.5625 95.5988 66.7774 95.5733 66.9422 95.5562C67.1089 95.5373 67.2301 95.506 67.3059 95.4625C67.3835 95.4189 67.4223 95.3431 67.4223 95.2352V95.2125C67.4223 94.9322 67.3456 94.7144 67.1922 94.559C67.0407 94.4037 66.8106 94.3261 66.5019 94.3261C66.1818 94.3261 65.9309 94.3962 65.749 94.5363C65.5672 94.6765 65.4394 94.8261 65.3655 94.9852L64.7291 94.7579C64.8428 94.4928 64.9943 94.2863 65.1837 94.1386C65.375 93.989 65.5833 93.8848 65.8087 93.8261C66.036 93.7655 66.2595 93.7352 66.4791 93.7352C66.6193 93.7352 66.7803 93.7522 66.9621 93.7863C67.1458 93.8185 67.3229 93.8858 67.4934 93.988C67.6657 94.0903 67.8087 94.2447 67.9223 94.4511C68.036 94.6575 68.0928 94.934 68.0928 95.2806V98.1556H67.4223V97.5647H67.3882C67.3428 97.6594 67.267 97.7608 67.161 97.8687C67.0549 97.9767 66.9138 98.0685 66.7377 98.1443C66.5615 98.22 66.3466 98.2579 66.0928 98.2579ZM66.1951 97.6556C66.4602 97.6556 66.6837 97.6036 66.8655 97.4994C67.0492 97.3952 67.1875 97.2608 67.2803 97.096C67.375 96.9312 67.4223 96.7579 67.4223 96.5761V95.9625C67.3939 95.9965 67.3314 96.0278 67.2348 96.0562C67.1401 96.0827 67.0303 96.1064 66.9053 96.1272C66.7822 96.1462 66.6619 96.1632 66.5445 96.1784C66.429 96.1916 66.3352 96.203 66.2632 96.2125C66.089 96.2352 65.9261 96.2721 65.7746 96.3233C65.625 96.3725 65.5038 96.4473 65.411 96.5477C65.3201 96.6462 65.2746 96.7806 65.2746 96.9511C65.2746 97.184 65.3608 97.3602 65.5331 97.4795C65.7074 97.5969 65.928 97.6556 66.1951 97.6556Z" fill="#6D6D6D"/>
<rect x="213.5" y="59.6556" width="68" height="48" rx="3.5" stroke="url(#paint1_linear_1099_9939)"/>
<g clip-path="url(#clip0_1099_9939)">
<path d="M230.334 84.6556L228.467 82.3222H225.001C224.824 82.3222 224.654 82.252 224.529 82.127C224.404 82.0019 224.334 81.8324 224.334 81.6556V74.3909C224.334 74.2141 224.404 74.0445 224.529 73.9195C224.654 73.7945 224.824 73.7242 225.001 73.7242H235.667C235.844 73.7242 236.014 73.7945 236.139 73.9195C236.264 74.0445 236.334 74.2141 236.334 74.3909V81.6556C236.334 81.8324 236.264 82.0019 236.139 82.127C236.014 82.252 235.844 82.3222 235.667 82.3222H232.201L230.334 84.6556ZM231.56 80.9889H235.001V75.0576H225.667V80.9889H229.108L230.334 82.5209L231.56 80.9889ZM222.334 70.9889H233.667V72.3222H223.001V79.6556H221.667V71.6556C221.667 71.4787 221.737 71.3092 221.862 71.1842C221.988 71.0591 222.157 70.9889 222.334 70.9889V70.9889Z" fill="#767676"/>
</g>
<path d="M254.118 82.1555H241.406V80.9795C241.406 79.4395 241.686 77.1155 246.516 76.1075L248.952 75.6035C250.366 75.3375 250.492 75.0575 250.492 74.7355C250.492 74.3295 250.17 73.9515 247.874 73.9515C245.256 73.9515 245.032 74.9035 244.99 75.4215H241.588V75.3095C241.588 74.1195 242.092 71.5575 247.482 71.5575H248.042C252.942 71.5575 253.936 73.1115 253.936 74.7635V74.7915C253.936 76.3595 253.334 77.3535 249.918 77.9135L247.062 78.3895C244.598 78.8375 244.318 79.3975 244.318 79.6915H250.912V78.3475H254.118V82.1555ZM261.209 82.3375H260.551C254.881 82.3375 254.349 79.5235 254.349 78.4595V78.3475H257.779C257.821 78.6135 257.975 79.9295 260.845 79.9295C263.813 79.9295 263.981 79.1875 263.981 78.7675C263.981 78.3615 263.757 77.9555 262.525 77.9555H258.843V75.5335H262.357C263.519 75.5335 263.715 75.1975 263.715 74.8475C263.715 74.4695 263.491 73.9375 260.635 73.9375C257.849 73.9375 257.821 74.9035 257.779 75.1275H254.377V74.9875C254.377 74.0355 254.797 71.5575 260.327 71.5575H260.915C266.487 71.5575 267.131 73.1255 267.131 74.2455V74.3295C267.131 75.4215 266.137 75.9815 265.465 76.1355C266.291 76.3595 267.453 77.0735 267.453 78.6835V78.7815C267.453 80.5315 266.347 82.3375 261.209 82.3375Z" fill="#C4C4C4"/>
<path d="M226.614 95.2464C226.614 95.8601 226.503 96.3904 226.282 96.8373C226.06 97.2843 225.756 97.629 225.37 97.8714C224.983 98.1139 224.542 98.2351 224.046 98.2351C223.55 98.2351 223.108 98.1139 222.722 97.8714C222.336 97.629 222.032 97.2843 221.81 96.8373C221.589 96.3904 221.478 95.8601 221.478 95.2464C221.478 94.6328 221.589 94.1025 221.81 93.6555C222.032 93.2085 222.336 92.8639 222.722 92.6214C223.108 92.379 223.55 92.2578 224.046 92.2578C224.542 92.2578 224.983 92.379 225.37 92.6214C225.756 92.8639 226.06 93.2085 226.282 93.6555C226.503 94.1025 226.614 94.6328 226.614 95.2464ZM225.932 95.2464C225.932 94.7426 225.848 94.3174 225.679 93.9709C225.513 93.6243 225.286 93.362 225 93.1839C224.716 93.0059 224.398 92.9169 224.046 92.9169C223.694 92.9169 223.375 93.0059 223.089 93.1839C222.804 93.362 222.578 93.6243 222.41 93.9709C222.243 94.3174 222.16 94.7426 222.16 95.2464C222.16 95.7502 222.243 96.1754 222.41 96.522C222.578 96.8686 222.804 97.1309 223.089 97.3089C223.375 97.487 223.694 97.576 224.046 97.576C224.398 97.576 224.716 97.487 225 97.3089C225.286 97.1309 225.513 96.8686 225.679 96.522C225.848 96.1754 225.932 95.7502 225.932 95.2464ZM227.243 98.1555V93.7919H230.674V98.1555H230.004V94.4169H227.913V98.1555H227.243ZM233.206 98.2464C232.812 98.2464 232.467 98.1527 232.169 97.9652C231.874 97.7777 231.643 97.5154 231.476 97.1782C231.311 96.8411 231.229 96.4472 231.229 95.9964C231.229 95.5419 231.311 95.1451 231.476 94.8061C231.643 94.4671 231.874 94.2038 232.169 94.0163C232.467 93.8288 232.812 93.7351 233.206 93.7351C233.6 93.7351 233.945 93.8288 234.24 94.0163C234.538 94.2038 234.769 94.4671 234.934 94.8061C235.1 95.1451 235.184 95.5419 235.184 95.9964C235.184 96.4472 235.1 96.8411 234.934 97.1782C234.769 97.5154 234.538 97.7777 234.24 97.9652C233.945 98.1527 233.6 98.2464 233.206 98.2464ZM233.206 97.6442C233.505 97.6442 233.752 97.5674 233.945 97.414C234.138 97.2606 234.281 97.0589 234.374 96.8089C234.467 96.5589 234.513 96.2881 234.513 95.9964C234.513 95.7048 234.467 95.433 234.374 95.1811C234.281 94.9292 234.138 94.7256 233.945 94.5703C233.752 94.415 233.505 94.3373 233.206 94.3373C232.907 94.3373 232.661 94.415 232.468 94.5703C232.274 94.7256 232.131 94.9292 232.039 95.1811C231.946 95.433 231.899 95.7048 231.899 95.9964C231.899 96.2881 231.946 96.5589 232.039 96.8089C232.131 97.0589 232.274 97.2606 232.468 97.414C232.661 97.5674 232.907 97.6442 233.206 97.6442ZM235.742 98.1555V93.7919H237.526C237.995 93.7919 238.369 93.8979 238.645 94.1101C238.922 94.3222 239.06 94.6025 239.06 94.951C239.06 95.2161 238.981 95.4216 238.824 95.5674C238.667 95.7114 238.465 95.8089 238.219 95.8601C238.38 95.8828 238.536 95.9396 238.688 96.0305C238.841 96.1214 238.968 96.2464 239.068 96.4055C239.169 96.5627 239.219 96.7559 239.219 96.9851C239.219 97.2085 239.162 97.4084 239.048 97.5845C238.935 97.7606 238.772 97.8998 238.56 98.0021C238.348 98.1044 238.094 98.1555 237.798 98.1555H235.742ZM236.378 97.5419H237.798C238.03 97.5419 238.21 97.487 238.341 97.3771C238.472 97.2673 238.537 97.1176 238.537 96.9282C238.537 96.7029 238.472 96.5258 238.341 96.397C238.21 96.2663 238.03 96.201 237.798 96.201H236.378V97.5419ZM236.378 95.6214H237.526C237.706 95.6214 237.86 95.5968 237.989 95.5476C238.118 95.4964 238.216 95.4245 238.284 95.3317C238.354 95.237 238.389 95.1252 238.389 94.9964C238.389 94.8127 238.313 94.6688 238.159 94.5646C238.006 94.4585 237.795 94.4055 237.526 94.4055H236.378V95.6214ZM241.598 98.2464C241.178 98.2464 240.815 98.1536 240.51 97.968C240.207 97.7805 239.973 97.5192 239.808 97.1839C239.645 96.8468 239.564 96.4548 239.564 96.0078C239.564 95.5608 239.645 95.1669 239.808 94.826C239.973 94.4832 240.202 94.2161 240.496 94.0248C240.791 93.8317 241.136 93.7351 241.53 93.7351C241.757 93.7351 241.982 93.7729 242.203 93.8487C242.425 93.9245 242.626 94.0476 242.808 94.218C242.99 94.3866 243.135 94.6101 243.243 94.8885C243.351 95.1669 243.405 95.5097 243.405 95.9169V96.201H240.041V95.6214H242.723C242.723 95.3752 242.674 95.1555 242.575 94.9623C242.479 94.7692 242.34 94.6167 242.161 94.5049C241.983 94.3932 241.772 94.3373 241.53 94.3373C241.263 94.3373 241.032 94.4036 240.837 94.5362C240.644 94.6669 240.495 94.8373 240.391 95.0476C240.287 95.2578 240.234 95.4832 240.234 95.7237V96.1101C240.234 96.4396 240.291 96.719 240.405 96.9481C240.52 97.1754 240.68 97.3487 240.885 97.468C241.09 97.5854 241.327 97.6442 241.598 97.6442C241.774 97.6442 241.933 97.6195 242.075 97.5703C242.219 97.5192 242.343 97.4434 242.448 97.343C242.552 97.2407 242.632 97.1139 242.689 96.9623L243.337 97.1442C243.269 97.3639 243.154 97.557 242.993 97.7237C242.832 97.8885 242.633 98.0173 242.396 98.1101C242.16 98.201 241.894 98.2464 241.598 98.2464ZM249.914 97.5305L249.834 99.4055H249.141V98.1555H248.573V97.5305H249.914ZM243.959 93.7919H244.63V97.5305H246.278V93.7919H246.948V97.5305H248.596V93.7919H249.266V98.1555H243.959V93.7919ZM252.207 98.2464C251.786 98.2464 251.423 98.1536 251.118 97.968C250.815 97.7805 250.582 97.5192 250.417 97.1839C250.254 96.8468 250.172 96.4548 250.172 96.0078C250.172 95.5608 250.254 95.1669 250.417 94.826C250.582 94.4832 250.811 94.2161 251.104 94.0248C251.4 93.8317 251.744 93.7351 252.138 93.7351C252.366 93.7351 252.59 93.7729 252.812 93.8487C253.033 93.9245 253.235 94.0476 253.417 94.218C253.599 94.3866 253.743 94.6101 253.851 94.8885C253.959 95.1669 254.013 95.5097 254.013 95.9169V96.201H250.65V95.6214H253.332C253.332 95.3752 253.282 95.1555 253.184 94.9623C253.087 94.7692 252.949 94.6167 252.769 94.5049C252.591 94.3932 252.381 94.3373 252.138 94.3373C251.871 94.3373 251.64 94.4036 251.445 94.5362C251.252 94.6669 251.103 94.8373 250.999 95.0476C250.895 95.2578 250.843 95.4832 250.843 95.7237V96.1101C250.843 96.4396 250.9 96.719 251.013 96.9481C251.129 97.1754 251.289 97.3487 251.493 97.468C251.698 97.5854 251.936 97.6442 252.207 97.6442C252.383 97.6442 252.542 97.6195 252.684 97.5703C252.828 97.5192 252.952 97.4434 253.056 97.343C253.16 97.2407 253.241 97.1139 253.297 96.9623L253.945 97.1442C253.877 97.3639 253.762 97.557 253.601 97.7237C253.44 97.8885 253.242 98.0173 253.005 98.1101C252.768 98.201 252.502 98.2464 252.207 98.2464ZM257.488 95.6669V96.2919H255.079V95.6669H257.488ZM255.238 93.7919V98.1555H254.568V93.7919H255.238ZM258 93.7919V98.1555H257.329V93.7919H258ZM259.429 97.1669L261.532 93.7919H262.304V98.1555H261.634V94.7805L259.543 98.1555H258.759V93.7919H259.429V97.1669ZM263.737 97.1669L265.84 93.7919H266.612V98.1555H265.942V94.7805L263.851 98.1555H263.067V93.7919H263.737V97.1669ZM265.397 92.3373H266.022C266.022 92.6442 265.915 92.8951 265.703 93.0902C265.491 93.2853 265.203 93.3828 264.84 93.3828C264.482 93.3828 264.197 93.2853 263.985 93.0902C263.774 92.8951 263.669 92.6442 263.669 92.3373H264.294C264.294 92.4851 264.335 92.6148 264.416 92.7265C264.5 92.8383 264.641 92.8942 264.84 92.8942C265.039 92.8942 265.181 92.8383 265.266 92.7265C265.353 92.6148 265.397 92.4851 265.397 92.3373Z" fill="#6D6D6D"/>
<path d="M282 34.8571H186.823C183.698 34.8571 180.688 33.6778 178.394 31.5548L173.8 27.3024C171.507 25.1794 168.497 24 165.372 24H141.381C138.255 24 135.245 25.1794 132.952 27.3024L128.358 31.5548C126.064 33.6778 123.054 34.8571 119.929 34.8571H24" stroke="url(#paint2_linear_1099_9939)" stroke-width="2" stroke-linecap="square"/>
<path d="M282 142.857H186.823C183.698 142.857 180.688 141.678 178.394 139.555L173.8 135.302C171.507 133.179 168.497 132 165.372 132H141.381C138.255 132 135.245 133.179 132.952 135.302L128.358 139.555C126.064 141.678 123.054 142.857 119.929 142.857H24" stroke="url(#paint3_linear_1099_9939)" stroke-width="2" stroke-linecap="square"/>
<path d="M178.318 54.4314V50.6814H178.955V54.4314H178.318ZM176.761 52.8746V52.2382H180.511V52.8746H176.761ZM181.137 55.4541V54.9427L183.057 52.8405C183.283 52.5943 183.468 52.3802 183.614 52.1984C183.76 52.0147 183.868 51.8424 183.938 51.6814C184.01 51.5185 184.046 51.348 184.046 51.17C184.046 50.9655 183.997 50.7884 183.898 50.6388C183.802 50.4891 183.669 50.3736 183.501 50.2922C183.332 50.2107 183.143 50.17 182.932 50.17C182.709 50.17 182.514 50.2164 182.347 50.3092C182.182 50.4001 182.055 50.528 181.964 50.6927C181.875 50.8575 181.83 51.0507 181.83 51.2723H181.16C181.16 50.9314 181.238 50.6321 181.395 50.3746C181.553 50.117 181.767 49.9162 182.038 49.7723C182.31 49.6283 182.616 49.5564 182.955 49.5564C183.296 49.5564 183.598 49.6283 183.861 49.7723C184.125 49.9162 184.331 50.1104 184.481 50.3547C184.63 50.599 184.705 50.8708 184.705 51.17C184.705 51.384 184.666 51.5933 184.589 51.7979C184.513 52.0005 184.38 52.2268 184.191 52.4768C184.003 52.7249 183.743 53.028 183.41 53.3859L182.103 54.7836V54.8291H184.807V55.4541H181.137ZM188.481 54.3632V54.0564C188.481 53.8443 188.525 53.6501 188.612 53.474C188.701 53.296 188.83 53.1539 188.998 53.0479C189.169 52.9399 189.375 52.8859 189.618 52.8859C189.864 52.8859 190.07 52.9399 190.237 53.0479C190.404 53.1539 190.53 53.296 190.615 53.474C190.7 53.6501 190.743 53.8443 190.743 54.0564V54.3632C190.743 54.5753 190.699 54.7704 190.612 54.9484C190.527 55.1246 190.4 55.2666 190.231 55.3746C190.065 55.4806 189.86 55.5336 189.618 55.5336C189.371 55.5336 189.164 55.4806 188.996 55.3746C188.827 55.2666 188.699 55.1246 188.612 54.9484C188.525 54.7704 188.481 54.5753 188.481 54.3632ZM189.061 54.0564V54.3632C189.061 54.5393 189.103 54.6975 189.186 54.8376C189.269 54.9759 189.413 55.045 189.618 55.045C189.817 55.045 189.957 54.9759 190.038 54.8376C190.121 54.6975 190.163 54.5393 190.163 54.3632V54.0564C190.163 53.8802 190.123 53.723 190.044 53.5848C189.964 53.4446 189.822 53.3746 189.618 53.3746C189.419 53.3746 189.276 53.4446 189.189 53.5848C189.103 53.723 189.061 53.8802 189.061 54.0564ZM185.584 51.0336V50.7268C185.584 50.5147 185.627 50.3206 185.714 50.1444C185.803 49.9664 185.932 49.8244 186.101 49.7183C186.271 49.6104 186.478 49.5564 186.72 49.5564C186.966 49.5564 187.173 49.6104 187.339 49.7183C187.506 49.8244 187.632 49.9664 187.717 50.1444C187.802 50.3206 187.845 50.5147 187.845 50.7268V51.0336C187.845 51.2458 187.801 51.4408 187.714 51.6189C187.629 51.795 187.502 51.9371 187.334 52.045C187.167 52.1511 186.962 52.2041 186.72 52.2041C186.474 52.2041 186.266 52.1511 186.098 52.045C185.929 51.9371 185.801 51.795 185.714 51.6189C185.627 51.4408 185.584 51.2458 185.584 51.0336ZM186.163 50.7268V51.0336C186.163 51.2098 186.205 51.3679 186.288 51.5081C186.371 51.6463 186.515 51.7155 186.72 51.7155C186.919 51.7155 187.059 51.6463 187.14 51.5081C187.224 51.3679 187.265 51.2098 187.265 51.0336V50.7268C187.265 50.5507 187.226 50.3935 187.146 50.2552C187.067 50.1151 186.925 50.045 186.72 50.045C186.521 50.045 186.378 50.1151 186.291 50.2552C186.206 50.3935 186.163 50.5507 186.163 50.7268ZM185.8 55.4541L189.8 49.6359H190.447L186.447 55.4541H185.8Z" fill="#6D6D6D"/>
<path d="M176.466 65.2609V64.6814L179.023 60.6359H179.443V61.5336H179.159L177.227 64.5905V64.6359H180.67V65.2609H176.466ZM179.205 66.4541V65.0848V64.8149V60.6359H179.875V66.4541H179.205ZM183.236 66.5336C182.861 66.5336 182.526 66.4693 182.233 66.3405C181.941 66.2117 181.709 66.0327 181.537 65.8035C181.366 65.5725 181.274 65.3045 181.258 64.9996H181.974C181.989 65.1871 182.054 65.349 182.168 65.4854C182.281 65.6198 182.43 65.724 182.614 65.7979C182.797 65.8717 183.001 65.9086 183.224 65.9086C183.474 65.9086 183.696 65.8651 183.889 65.778C184.082 65.6908 184.234 65.5696 184.344 65.4143C184.453 65.259 184.508 65.0791 184.508 64.8746C184.508 64.6605 184.455 64.4721 184.349 64.3092C184.243 64.1444 184.088 64.0157 183.883 63.9229C183.679 63.83 183.429 63.7836 183.133 63.7836H182.668V63.1586H183.133C183.364 63.1586 183.567 63.117 183.741 63.0336C183.918 62.9503 184.055 62.8329 184.153 62.6814C184.254 62.5299 184.304 62.3518 184.304 62.1473C184.304 61.9503 184.26 61.7789 184.173 61.6331C184.086 61.4872 183.963 61.3736 183.804 61.2922C183.647 61.2107 183.461 61.17 183.247 61.17C183.046 61.17 182.857 61.2069 182.679 61.2808C182.503 61.3528 182.359 61.4579 182.247 61.5961C182.135 61.7325 182.075 61.8973 182.065 62.0905H181.383C181.395 61.7855 181.487 61.5185 181.659 61.2893C181.831 61.0583 182.057 60.8783 182.335 60.7496C182.615 60.6208 182.923 60.5564 183.258 60.5564C183.618 60.5564 183.927 60.6293 184.185 60.7751C184.442 60.9191 184.64 61.1094 184.778 61.3461C184.917 61.5829 184.986 61.8386 184.986 62.1132C184.986 62.4408 184.9 62.7202 184.727 62.9513C184.557 63.1823 184.325 63.3424 184.031 63.4314V63.4768C184.399 63.5374 184.685 63.6937 184.892 63.9456C185.098 64.1956 185.202 64.5052 185.202 64.8746C185.202 65.1908 185.115 65.4749 184.943 65.7268C184.773 65.9768 184.54 66.1738 184.244 66.3177C183.949 66.4617 183.613 66.5336 183.236 66.5336ZM190.081 65.545L191.603 62.0905H192.24L190.353 66.4541H189.808L187.956 62.0905H188.581L190.081 65.545ZM188.365 62.0905V66.4541H187.694V62.0905H188.365ZM191.797 66.4541V62.0905H192.467V66.4541H191.797ZM193.899 65.4655L196.002 62.0905H196.774V66.4541H196.104V63.0791L194.013 66.4541H193.229V62.0905H193.899V65.4655ZM200.458 63.9655V64.5905H198.048V63.9655H200.458ZM198.208 62.0905V66.4541H197.537V62.0905H198.208ZM200.969 62.0905V66.4541H200.298V62.0905H200.969ZM202.217 66.4996C202.077 66.4996 201.956 66.4494 201.856 66.349C201.756 66.2486 201.705 66.1283 201.705 65.9882C201.705 65.848 201.756 65.7278 201.856 65.6274C201.956 65.527 202.077 65.4768 202.217 65.4768C202.357 65.4768 202.477 65.527 202.577 65.6274C202.678 65.7278 202.728 65.848 202.728 65.9882C202.728 66.081 202.704 66.1662 202.657 66.2439C202.612 66.3215 202.55 66.384 202.472 66.4314C202.397 66.4768 202.311 66.4996 202.217 66.4996Z" fill="#6D6D6D"/>
</g>
<defs>
<filter id="filter0_b_1099_9939" x="-20" y="-20" width="346" height="206.857" filterUnits="userSpaceOnUse" color-interpolation-filters="sRGB">
<feFlood flood-opacity="0" result="BackgroundImageFix"/>
<feGaussianBlur in="BackgroundImageFix" stdDeviation="10"/>
<feComposite in2="SourceAlpha" operator="in" result="effect1_backgroundBlur_1099_9939"/>
<feBlend mode="normal" in="SourceGraphic" in2="effect1_backgroundBlur_1099_9939" result="shape"/>
</filter>
<linearGradient id="paint0_linear_1099_9939" x1="58.5" y1="59.1556" x2="58.5" y2="111.156" gradientUnits="userSpaceOnUse">
<stop stop-color="#64748B"/>
<stop offset="1" stop-color="#64748B" stop-opacity="0"/>
</linearGradient>
<linearGradient id="paint1_linear_1099_9939" x1="247.5" y1="59.1556" x2="247.5" y2="111.156" gradientUnits="userSpaceOnUse">
<stop stop-color="#64748B"/>
<stop offset="1" stop-color="#64748B" stop-opacity="0"/>
</linearGradient>
<linearGradient id="paint2_linear_1099_9939" x1="285" y1="35" x2="24.029" y2="40.0103" gradientUnits="userSpaceOnUse">
<stop stop-color="#00C99D" stop-opacity="0"/>
<stop offset="0.515625" stop-color="#00C99D"/>
<stop offset="1" stop-color="#00C99D" stop-opacity="0"/>
</linearGradient>
<linearGradient id="paint3_linear_1099_9939" x1="285" y1="143" x2="24.029" y2="148.01" gradientUnits="userSpaceOnUse">
<stop stop-color="#00C99D" stop-opacity="0"/>
<stop offset="0.515625" stop-color="#00C99D"/>
<stop offset="1" stop-color="#00C99D" stop-opacity="0"/>
</linearGradient>
<clipPath id="clip0_1099_9939">
<rect width="16" height="16" fill="white" transform="translate(221 69.6555)"/>
</clipPath>
</defs>
</svg>
