<svg xmlns="http://www.w3.org/2000/svg" width="23" height="20" viewBox="0 0 23 20" fill="none">
    <path fill-rule="evenodd" clip-rule="evenodd" d="M1.57098 8.73274C7.47655 6.15976 11.4145 4.4635 13.3849 3.64394C19.0107 1.30396 20.1797 0.897476 20.9416 0.884054C21.1092 0.881102 21.4839 0.922634 21.7266 1.11958C21.9316 1.28588 21.988 1.51052 22.0149 1.66819C22.0419 1.82586 22.0755 2.18503 22.0488 2.46568C21.7439 5.66895 20.4248 13.4424 19.7537 17.0301C19.4697 18.5482 18.9106 19.0572 18.3693 19.1071C17.1929 19.2153 16.2995 18.3296 15.1601 17.5827C13.3772 16.4139 12.3699 15.6864 10.6393 14.5459C8.63918 13.2279 9.93575 12.5034 11.0756 11.3195C11.3739 11.0097 16.5572 6.29508 16.6575 5.86739C16.67 5.8139 16.6817 5.61451 16.5632 5.50923C16.4448 5.40395 16.27 5.43995 16.1438 5.46858C15.965 5.50917 13.1167 7.3918 7.59894 11.1165C6.79047 11.6716 6.05817 11.9421 5.40206 11.928C4.67875 11.9123 3.2874 11.519 2.25307 11.1828C0.98442 10.7704 -0.0238765 10.5523 0.0639235 9.85197C0.109655 9.48717 0.612007 9.1141 1.57098 8.73274Z" fill="black" fill-opacity="0.56"/>
  </svg>